<svg xmlns="http://www.w3.org/2000/svg" viewBox="0 0 164.93 164.93"><defs><style>.cls-1{fill:#fff;stroke:#231f20;stroke-linecap:round;stroke-linejoin:round;stroke-width:0.25px;}</style></defs><g id="Layer_2" data-name="Layer 2"><g id="Layer_1-2" data-name="Layer 1"><path class="cls-1" d="M61.65,50.47a47.26,47.26,0,0,1-2.47-6.73c-.07-.22-.13-.44-.19-.66Z"/><path class="cls-1" d="M83.65,77.05c-1.16,0-2.33,0-3.49-.1"/><path class="cls-1" d="M69.67,74.66a34.75,34.75,0,0,1-3.5-1.5"/><path class="cls-1" d="M45.15,45.2h0l0,.17"/><path class="cls-1" d="M55.86,65.79l-.18-.18"/><path class="cls-1" d="M57.64,36.15c0-.34-.08-.69-.11-1s-.07-.69-.09-1"/><path class="cls-1" d="M57.35,32.72c0-.32,0-.65,0-1"/><path class="cls-1" d="M59.18,16.72V8.43c.43-.35.87-.68,1.32-1,.71-.51,1.43-1,2.17-1.46.53-.33,1.06-.65,1.6-1a38.43,38.43,0,0,1,6.44-2.86l-10,10a.37.37,0,0,1,0-.11.54.54,0,0,0,0,.11s0,.08,0,.13-.15.38-.22.58-.22.55-.32.83-.11.33-.17.5l-.27.79c-.09.26-.17.53-.25.79S59.27,16.39,59.18,16.72Z"/><path class="cls-1" d="M58.52,19.29a3.41,3.41,0,0,0-.1.46c-.05.18-.08.36-.12.54s-.09.41-.12.62c-.15.73-.27,1.47-.38,2.21,0,.23-.07.47-.1.7s-.07.55-.1.82l-.06.57h0"/><path class="cls-1" d="M60.7,12.24a1.12,1.12,0,0,0,0-.13"/><path class="cls-1" d="M59.18,68.74c.8.65,1.62,1.25,2.47,1.82.34.22.68.45,1,.66"/><path class="cls-1" d="M73.17,75.77q1.62.42,3.27.72h0l.22,0"/><path class="cls-1" d="M87.15,75.33c.94.4,1.88.77,2.83,1.1-.94.17-1.88.31-2.83.41"/><path class="cls-1" d="M62.67,52.6c-.33-.65-.65-1.31-1-2Z"/><path class="cls-1" d="M69.67,62.78a48.2,48.2,0,0,1-3.5-4.4Z"/><path class="cls-1" d="M76.66,69.26c-1.2-.91-2.35-1.88-3.48-2.91Z"/><path class="cls-1" d="M83.65,73.69c-1.18-.62-2.35-1.29-3.49-2Z"/><path class="cls-1" d="M61.65,50.47a47.26,47.26,0,0,1-2.47-6.73c-.07-.22-.13-.44-.19-.66Z"/><path class="cls-1" d="M3.34,67.64v31a39.07,39.07,0,0,1-2.29-7,38.24,38.24,0,0,1-.7-4.24,39.25,39.25,0,0,1-.22-4.72,37.58,37.58,0,0,1,.45-5.4A38.11,38.11,0,0,1,2.16,70.7C2.51,69.67,2.9,68.65,3.34,67.64Z"/><path class="cls-1" d="M13.83,65V53.62C14.53,53,15.24,52.47,16,52c.45-.32.9-.64,1.36-.94.81-.54,1.64-1,2.48-1.52-.19.31-.37.63-.55.95l-.09.17-.06.09c-.18.33-.37.66-.55,1l-.09.18c-.4.76-.78,1.54-1.14,2.33-.18.38-.35.77-.51,1.15s-.33.78-.48,1.16l9.87-9.87a38.11,38.11,0,0,1,6.53-1.58L14.1,63.71c-.09.4-.18.8-.26,1.21A.43.43,0,0,0,13.83,65Z"/><path class="cls-1" d="M10.34,57v52.29l-.59-.63a39.66,39.66,0,0,1-2.91-3.72V61.33c.19-.28.39-.57.6-.85A36.94,36.94,0,0,1,10.34,57Z"/><path class="cls-1" d="M17.33,95.31v19.88a36.12,36.12,0,0,1-3.5-2.61V84.36l.18.88c.09.41.18.82.29,1.24h0c.07.5.16,1,.26,1.49a23.4,23.4,0,0,0,1.11,3.84,24,24,0,0,0,1.58,3.37Z"/><path class="cls-1" d="M24.32,103v15.84a35.54,35.54,0,0,1-3.5-1.6V100l.42.43.34.33a22.84,22.84,0,0,0,2.7,2.25Z"/><path class="cls-1" d="M31.32,106.49v14.39a34.94,34.94,0,0,1-3.5-.84V105.1a22.24,22.24,0,0,0,3,1.23Z"/><path class="cls-1" d="M38.31,107.57v14a34.19,34.19,0,0,1-3.5-.18V107.29A24.17,24.17,0,0,0,38.31,107.57Z"/><path class="cls-1" d="M45.3,106.63V121a34.33,34.33,0,0,1-3.49.45V107.36A24.31,24.31,0,0,0,45.3,106.63Z"/><path class="cls-1" d="M52.3,103.43V119a36.63,36.63,0,0,1-3.5,1.14V105.33a22.72,22.72,0,0,0,2.74-1.49A8,8,0,0,1,52.3,103.43Z"/><path class="cls-1" d="M59.29,115.49l-.22.15c-1.07.67-2.16,1.29-3.28,1.85V102.77a7,7,0,0,1,3.5,1.23,6.57,6.57,0,0,1,1,.8A7,7,0,0,1,59.29,115.49Z"/><path class="cls-1" d="M25,62.72a24,24,0,0,0-3.74,3.07,24.43,24.43,0,0,0-3.07,3.73l-5.3,5.31a45.26,45.26,0,0,1,.25-5.2l25-25a39.09,39.09,0,0,1,4.71.23Z"/><path class="cls-1" d="M14.3,86.48c-.11-.42-.2-.83-.29-1.24l-.18-.88c0-.16-.07-.33-.1-.5-.28-1.43-.48-2.87-.62-4.32l1.49-1.49a23.94,23.94,0,0,0-.53,5.47A24.58,24.58,0,0,0,14.3,86.48Z"/><path class="cls-1" d="M49.7,57.78l-2.44,2.44a23.69,23.69,0,0,0-3.84-1.11L48,54.51A35.65,35.65,0,0,1,46.63,51L39,58.62a25.17,25.17,0,0,0-5.47.52l12-12c-.06-.29-.13-.58-.18-.87s-.11-.52-.15-.78a.31.31,0,0,1,0-.08V31.82a38.42,38.42,0,0,1,3.5-10.52V55.88a2.31,2.31,0,0,0,.18.35c.12.25.25.5.38.74l0,0Z"/><path class="cls-1" d="M55.68,65.61l.18.18a25.1,25.1,0,0,0-2.28-2"/><path class="cls-1" d="M77.24.56A37.54,37.54,0,0,1,82.63.13L57.54,25.21l.06-.57c0-.27.07-.54.1-.82s.06-.47.1-.7c.11-.74.23-1.48.38-2.21,0-.21.08-.42.12-.62s.07-.36.12-.54a3.41,3.41,0,0,1,.1-.46Z"/><path class="cls-1" d="M59,43.08c-.17-.65-.33-1.3-.48-2-.07-.26-.12-.51-.17-.76s-.13-.62-.19-.92c-.21-1.09-.38-2.19-.51-3.29,0-.34-.08-.69-.11-1s-.07-.7-.09-1l0-.27q0-.48-.06-1a.37.37,0,0,1,0-.11c0-.32,0-.65,0-1,0-.1,0-.2,0-.31,0-.33,0-.67,0-1L62.68,25a24.32,24.32,0,0,0-3.58,8.52A24,24,0,0,0,58.59,39,23.2,23.2,0,0,0,59,43.08Z"/><path class="cls-1" d="M87.34.36a41,41,0,0,1,4.23.71L78,14.66a24.14,24.14,0,0,0-8.49,3.55Z"/><path class="cls-1" d="M95.43,2.16c1.2.41,2.38.87,3.54,1.4L87.91,14.62a25.78,25.78,0,0,0-4.46-.48Z"/><path class="cls-1" d="M102.24,5.24c1,.59,2,1.24,3,1.93L95.13,17.3a24.54,24.54,0,0,0-3.37-1.58Z"/><path class="cls-1" d="M110.26,11.39l.33.34-9.9,9.89c-.36-.37-.73-.74-1.13-1.1s-1-.85-1.47-1.24L108,9.34C108.79,10,109.54,10.67,110.26,11.39Z"/><path class="cls-1" d="M112.92,14.34c.75.92,1.45,1.87,2.1,2.84l-10.2,10.2A25.58,25.58,0,0,0,103,24.32Z"/><path class="cls-1" d="M116.89,20.26a36.62,36.62,0,0,1,1.6,3.35L107.24,34.86a23,23,0,0,0-1-4Z"/><path class="cls-1" d="M120.55,30c.09.39.18.79.25,1.19L106.56,45.43a24.22,24.22,0,0,0,1-5.9l12.3-12.3C120.09,28.15,120.34,29.07,120.55,30Z"/><path class="cls-1" d="M121.48,40.4l-18,18.05a7,7,0,0,1-.64-4.3L121.4,35.54A39.42,39.42,0,0,1,121.48,40.4Z"/><path class="cls-1" d="M109.44,62.33a6.85,6.85,0,0,1-3.71-1.23L120.8,46a38.41,38.41,0,0,1-2.1,7,36.68,36.68,0,0,1-3.1,6A6.92,6.92,0,0,1,109.44,62.33Z"/><line class="cls-1" x1="13.12" y1="69.63" x2="38.12" y2="44.64"/><line class="cls-1" x1="24.98" y1="62.72" x2="42.83" y2="44.87"/><line class="cls-1" x1="12.87" y1="74.83" x2="18.17" y2="69.52"/><line class="cls-1" x1="13.11" y1="79.54" x2="14.6" y2="78.05"/><line class="cls-1" x1="13.73" y1="83.86" x2="14.07" y2="83.52"/><line class="cls-1" x1="100.69" y1="21.62" x2="110.59" y2="11.73"/><line class="cls-1" x1="102.95" y1="24.32" x2="112.92" y2="14.34"/><line class="cls-1" x1="104.82" y1="27.38" x2="115.02" y2="17.18"/><line class="cls-1" x1="106.28" y1="30.87" x2="116.89" y2="20.26"/><line class="cls-1" x1="107.24" y1="34.86" x2="118.49" y2="23.61"/><line class="cls-1" x1="107.51" y1="39.53" x2="119.81" y2="27.23"/><line class="cls-1" x1="106.56" y1="45.43" x2="120.8" y2="31.19"/><line class="cls-1" x1="102.78" y1="54.15" x2="121.4" y2="35.54"/><line class="cls-1" x1="103.43" y1="58.45" x2="121.48" y2="40.4"/><line class="cls-1" x1="60.75" y1="12.11" x2="60.75" y2="12.11"/><line class="cls-1" x1="58.52" y1="19.29" x2="77.24" y2="0.56"/><polyline class="cls-1" points="82.63 0.13 57.54 25.21 57.54 25.22"/><line class="cls-1" x1="69.49" y1="18.21" x2="87.34" y2="0.36"/><line class="cls-1" x1="77.98" y1="14.66" x2="91.57" y2="1.07"/><line class="cls-1" x1="83.45" y1="14.14" x2="95.43" y2="2.16"/><line class="cls-1" x1="87.91" y1="14.62" x2="98.97" y2="3.56"/><line class="cls-1" x1="91.76" y1="15.72" x2="102.24" y2="5.24"/><line class="cls-1" x1="95.13" y1="17.3" x2="105.26" y2="7.17"/><line class="cls-1" x1="98.09" y1="19.28" x2="108.03" y2="9.34"/><line class="cls-1" x1="17.33" y1="115.19" x2="17.33" y2="95.31"/><line class="cls-1" x1="20.82" y1="117.25" x2="20.82" y2="99.98"/><line class="cls-1" x1="24.32" y1="118.85" x2="24.32" y2="103.01"/><line class="cls-1" x1="27.82" y1="120.04" x2="27.82" y2="105.1"/><line class="cls-1" x1="31.32" y1="120.88" x2="31.32" y2="106.49"/><line class="cls-1" x1="34.81" y1="121.38" x2="34.81" y2="107.29"/><line class="cls-1" x1="38.31" y1="121.56" x2="38.31" y2="107.57"/><line class="cls-1" x1="41.81" y1="121.42" x2="41.81" y2="107.36"/><line class="cls-1" x1="45.3" y1="120.97" x2="45.3" y2="106.63"/><line class="cls-1" x1="48.8" y1="120.17" x2="48.8" y2="105.33"/><line class="cls-1" x1="52.3" y1="119.03" x2="52.3" y2="103.43"/><line class="cls-1" x1="3.34" y1="98.6" x2="3.34" y2="67.64"/><line class="cls-1" x1="6.84" y1="104.89" x2="6.84" y2="61.33"/><line class="cls-1" x1="10.34" y1="109.24" x2="10.34" y2="56.95"/><line class="cls-1" x1="13.83" y1="112.58" x2="13.83" y2="84.36"/><path class="cls-1" d="M83.65,77.05,80.16,77V71.68c1.14.72,2.31,1.39,3.49,2Z"/><line class="cls-1" x1="87.15" y1="76.84" x2="87.15" y2="75.33"/><path class="cls-1" d="M53.58,63.79a22.77,22.77,0,0,0-2.95-2l1-1,.43.6.11.15V15.63a38.13,38.13,0,0,1,3.5-4.06v54"/><path class="cls-1" d="M62.67,71.22l-3.49-2.48v-25a47.26,47.26,0,0,0,2.47,6.73l.07.16c.3.66.62,1.32,1,2Z"/><path class="cls-1" d="M69.67,74.66l-3.5-1.5V58.38a48.2,48.2,0,0,0,3.5,4.4Z"/><path class="cls-1" d="M76.66,76.53l-3.49-.76V66.35c1.13,1,2.28,2,3.48,2.91Z"/><path class="cls-1" d="M114.46,103.28a47.26,47.26,0,0,0,6.73,2.47l.66.19Z"/><path class="cls-1" d="M87.88,81.28c0,1.16,0,2.33.1,3.49"/><path class="cls-1" d="M90.27,95.26a34.75,34.75,0,0,0,1.5,3.5"/><path class="cls-1" d="M119.73,119.78h0l-.17,0"/><path class="cls-1" d="M99.14,109.07l.18.18"/><path class="cls-1" d="M128.78,107.29l1,.11q.51.06,1.05.09"/><path class="cls-1" d="M132.21,107.58l1,0"/><path class="cls-1" d="M148.21,105.75h8.29c.35-.43.68-.87,1-1.32.51-.71,1-1.43,1.46-2.17.33-.53.65-1.06.95-1.6a38.43,38.43,0,0,0,2.86-6.44l-10,10,.11-.05-.11.05-.13,0-.58.22-.83.32-.5.17-.79.26c-.26.1-.53.18-.79.26Z"/><path class="cls-1" d="M145.64,106.41a3.41,3.41,0,0,1-.46.1c-.18,0-.36.08-.54.12s-.41.09-.62.12c-.73.15-1.47.27-2.21.38l-.7.1-.82.1-.57.06h0"/><path class="cls-1" d="M152.69,104.23l.13,0"/><path class="cls-1" d="M96.19,105.75c-.65-.8-1.25-1.62-1.82-2.47-.22-.34-.45-.68-.66-1"/><path class="cls-1" d="M89.16,91.76q-.42-1.62-.72-3.27h0a1.7,1.7,0,0,0,0-.22"/><path class="cls-1" d="M89.6,77.78c-.4-.94-.77-1.88-1.1-2.83-.17.94-.31,1.88-.41,2.83"/><path class="cls-1" d="M112.33,102.26c.65.33,1.31.65,2,.95Z"/><path class="cls-1" d="M102.15,95.26a48.2,48.2,0,0,0,4.4,3.5Z"/><path class="cls-1" d="M95.67,88.27c.91,1.2,1.88,2.35,2.91,3.48Z"/><path class="cls-1" d="M91.24,81.28c.62,1.18,1.29,2.35,2,3.49Z"/><path class="cls-1" d="M114.46,103.28a47.26,47.26,0,0,0,6.73,2.47l.66.19Z"/><path class="cls-1" d="M97.29,161.59h-31a39.07,39.07,0,0,0,7,2.29,38.24,38.24,0,0,0,4.24.7,39.25,39.25,0,0,0,4.72.22,37.58,37.58,0,0,0,5.4-.45,38.11,38.11,0,0,0,6.53-1.58C95.26,162.42,96.28,162,97.29,161.59Z"/><path class="cls-1" d="M100,151.1h11.35c.59-.7,1.15-1.41,1.67-2.14.32-.45.64-.9.94-1.36.54-.81,1-1.64,1.52-2.48-.31.19-.63.37-1,.55l-.17.09-.09.06-1,.55-.18.09c-.76.4-1.54.78-2.33,1.14-.38.18-.77.35-1.15.51l-1.16.48,9.87-9.87a38.11,38.11,0,0,0,1.58-6.53l-18.64,18.64-1.21.26Z"/><path class="cls-1" d="M108,154.59H55.69l.63.59A39.66,39.66,0,0,0,60,158.09H103.6c.28-.19.57-.39.85-.6A36.94,36.94,0,0,0,108,154.59Z"/><path class="cls-1" d="M69.62,147.6H49.74a36.12,36.12,0,0,0,2.61,3.5H80.57l-.88-.18c-.41-.09-.82-.18-1.24-.29h0c-.5-.07-1-.16-1.49-.26a23.4,23.4,0,0,1-3.84-1.11,24,24,0,0,1-3.37-1.58Z"/><path class="cls-1" d="M61.92,140.61H46.08a35.54,35.54,0,0,0,1.6,3.5H65l-.43-.42-.33-.34a22.84,22.84,0,0,1-2.25-2.7S61.92,140.62,61.92,140.61Z"/><path class="cls-1" d="M58.44,133.61H44.05a34.94,34.94,0,0,0,.84,3.5H59.83a22.24,22.24,0,0,1-1.23-3Z"/><path class="cls-1" d="M57.36,126.62h-14a34.19,34.19,0,0,0,.18,3.5H57.64A24.17,24.17,0,0,1,57.36,126.62Z"/><path class="cls-1" d="M58.3,119.63H44a34.33,34.33,0,0,0-.45,3.49H57.57A24.31,24.31,0,0,1,58.3,119.63Z"/><path class="cls-1" d="M61.5,112.63H45.9a36.63,36.63,0,0,0-1.14,3.5H59.6a22.72,22.72,0,0,1,1.49-2.74A8,8,0,0,0,61.5,112.63Z"/><path class="cls-1" d="M49.44,105.64l-.15.22a36.64,36.64,0,0,0-1.85,3.28H62.16a7,7,0,0,0-1.23-3.5,6.57,6.57,0,0,0-.8-1A7,7,0,0,0,49.44,105.64Z"/><path class="cls-1" d="M102.21,140a24.71,24.71,0,0,1-6.81,6.81l-5.3,5.3a45.26,45.26,0,0,0,5.2-.25l25-25a39.09,39.09,0,0,0-.23-4.71Z"/><path class="cls-1" d="M78.45,150.63c.42.11.83.2,1.24.29l.88.18.5.1c1.42.28,2.87.48,4.32.62l1.49-1.49a23.94,23.94,0,0,1-5.47.53A24.42,24.42,0,0,1,78.45,150.63Z"/><path class="cls-1" d="M107.15,115.23l-2.44,2.44a23.69,23.69,0,0,1,1.11,3.84l4.6-4.61a35.65,35.65,0,0,0,3.54,1.4L106.31,126a25.17,25.17,0,0,1-.52,5.47l12-12c.29.06.58.13.87.18s.52.11.78.15l.08,0h13.56a38.42,38.42,0,0,0,10.52-3.5H109.05a2.31,2.31,0,0,1-.35-.18l-.74-.38,0,0Z"/><path class="cls-1" d="M99.32,109.25l-.18-.18a25.1,25.1,0,0,1,2,2.28"/><path class="cls-1" d="M164.37,87.69a37.54,37.54,0,0,0,.43-5.39l-25.08,25.09.57-.06.82-.1.7-.1c.74-.11,1.48-.23,2.21-.38.21,0,.42-.08.62-.12s.36-.07.54-.12a3.41,3.41,0,0,0,.46-.1Z"/><path class="cls-1" d="M121.85,105.94c.65.17,1.3.33,2,.48.26.07.51.12.76.17l.92.19c1.09.21,2.19.38,3.29.51l1,.11c.34,0,.7.07,1.05.09l.27,0q.48,0,1,.06h.11l1,0h1.32l5.39-5.39a24.32,24.32,0,0,1-8.52,3.58,24,24,0,0,1-5.47.51A23.2,23.2,0,0,1,121.85,105.94Z"/><path class="cls-1" d="M164.57,77.59a40.58,40.58,0,0,0-.71-4.23L150.27,87a24.14,24.14,0,0,1-3.55,8.49Z"/><path class="cls-1" d="M162.77,69.5c-.41-1.2-.87-2.38-1.4-3.54L150.31,77a25.78,25.78,0,0,1,.48,4.46Z"/><path class="cls-1" d="M159.69,62.69c-.59-1-1.24-2-1.93-3L147.63,69.8a24.54,24.54,0,0,1,1.58,3.37Z"/><path class="cls-1" d="M153.54,54.67l-.34-.33-9.89,9.89c.37.37.74.74,1.1,1.14s.85,1,1.24,1.47l9.94-9.94C154.94,56.14,154.26,55.39,153.54,54.67Z"/><path class="cls-1" d="M150.59,52c-.92-.75-1.87-1.45-2.84-2.1l-10.2,10.2A25.58,25.58,0,0,1,140.61,62Z"/><path class="cls-1" d="M144.67,48a36.62,36.62,0,0,0-3.35-1.6L130.07,57.69a23,23,0,0,1,4,1Z"/><path class="cls-1" d="M134.93,44.38c-.39-.09-.79-.18-1.19-.25L119.5,58.37a24.22,24.22,0,0,1,5.9-.95l12.3-12.3C136.78,44.84,135.86,44.59,134.93,44.38Z"/><path class="cls-1" d="M124.53,43.45l-18,18a7,7,0,0,0,4.3.64l18.61-18.61A39.42,39.42,0,0,0,124.53,43.45Z"/><path class="cls-1" d="M102.6,55.49a6.85,6.85,0,0,0,1.23,3.71L118.9,44.13a38.41,38.41,0,0,0-7,2.1,36.68,36.68,0,0,0-6,3.1A6.92,6.92,0,0,0,102.6,55.49Z"/><line class="cls-1" x1="95.3" y1="151.81" x2="120.29" y2="126.81"/><line class="cls-1" x1="102.21" y1="139.95" x2="120.06" y2="122.1"/><line class="cls-1" x1="90.1" y1="152.06" x2="95.4" y2="146.76"/><line class="cls-1" x1="85.39" y1="151.82" x2="86.88" y2="150.33"/><line class="cls-1" x1="81.07" y1="151.2" x2="81.41" y2="150.86"/><line class="cls-1" x1="143.31" y1="64.23" x2="153.2" y2="54.34"/><line class="cls-1" x1="140.61" y1="61.98" x2="150.59" y2="52.01"/><line class="cls-1" x1="137.55" y1="60.11" x2="147.75" y2="49.91"/><line class="cls-1" x1="134.06" y1="58.65" x2="144.67" y2="48.04"/><line class="cls-1" x1="130.07" y1="57.69" x2="141.32" y2="46.44"/><line class="cls-1" x1="125.4" y1="57.42" x2="137.7" y2="45.12"/><line class="cls-1" x1="119.5" y1="58.37" x2="133.74" y2="44.13"/><line class="cls-1" x1="110.78" y1="62.14" x2="129.39" y2="43.53"/><line class="cls-1" x1="106.48" y1="61.5" x2="124.53" y2="43.45"/><line class="cls-1" x1="152.82" y1="104.18" x2="152.82" y2="104.18"/><line class="cls-1" x1="145.64" y1="106.41" x2="164.37" y2="87.69"/><polyline class="cls-1" points="164.81 82.3 139.72 107.39 139.71 107.39"/><line class="cls-1" x1="146.72" y1="95.44" x2="164.57" y2="77.59"/><line class="cls-1" x1="150.27" y1="86.95" x2="163.86" y2="73.36"/><line class="cls-1" x1="150.79" y1="81.48" x2="162.77" y2="69.5"/><line class="cls-1" x1="150.31" y1="77.02" x2="161.37" y2="65.96"/><line class="cls-1" x1="149.21" y1="73.17" x2="159.69" y2="62.69"/><line class="cls-1" x1="147.63" y1="69.8" x2="157.76" y2="59.67"/><line class="cls-1" x1="145.65" y1="66.84" x2="155.59" y2="56.9"/><line class="cls-1" x1="49.74" y1="147.6" x2="69.62" y2="147.6"/><line class="cls-1" x1="47.68" y1="144.11" x2="64.95" y2="144.11"/><line class="cls-1" x1="46.08" y1="140.61" x2="61.92" y2="140.61"/><line class="cls-1" x1="44.89" y1="137.11" x2="59.83" y2="137.11"/><line class="cls-1" x1="44.05" y1="133.61" x2="58.44" y2="133.61"/><line class="cls-1" x1="43.55" y1="130.12" x2="57.64" y2="130.12"/><line class="cls-1" x1="43.37" y1="126.62" x2="57.36" y2="126.62"/><line class="cls-1" x1="43.51" y1="123.12" x2="57.57" y2="123.12"/><line class="cls-1" x1="43.96" y1="119.63" x2="58.3" y2="119.63"/><line class="cls-1" x1="44.76" y1="116.13" x2="59.6" y2="116.13"/><line class="cls-1" x1="45.9" y1="112.63" x2="61.5" y2="112.63"/><line class="cls-1" x1="66.33" y1="161.59" x2="97.29" y2="161.59"/><line class="cls-1" x1="60.04" y1="158.09" x2="103.6" y2="158.09"/><line class="cls-1" x1="55.69" y1="154.59" x2="107.98" y2="154.59"/><line class="cls-1" x1="52.35" y1="151.1" x2="80.57" y2="151.1"/><path class="cls-1" d="M87.88,81.28l.1,3.49h5.27c-.72-1.14-1.39-2.31-2-3.49Z"/><line class="cls-1" x1="88.09" y1="77.78" x2="89.6" y2="77.78"/><path class="cls-1" d="M101.14,111.35a22.77,22.77,0,0,1,2,3l1-1-.6-.43-.15-.11H149.3a38.13,38.13,0,0,0,4.06-3.5h-54"/><path class="cls-1" d="M93.71,102.26l2.48,3.49h25a47.26,47.26,0,0,1-6.73-2.47l-.16-.07c-.66-.3-1.32-.62-2-.95Z"/><path class="cls-1" d="M90.27,95.26l1.5,3.5h14.78a48.2,48.2,0,0,1-4.4-3.5Z"/><path class="cls-1" d="M88.4,88.27l.76,3.49h9.42c-1-1.13-2-2.28-2.91-3.48Z"/></g></g></svg>